<?xml version="1.0" encoding="utf-8"?>
<!-- Generator: Adobe Illustrator 24.0.2, SVG Export Plug-In . SVG Version: 6.00 Build 0)  -->
<svg version="1.1" id="Layer_1" xmlns="http://www.w3.org/2000/svg" xmlns:xlink="http://www.w3.org/1999/xlink" x="0px" y="0px"
	 viewBox="0 0 300 300" style="enable-background:new 0 0 300 300;" xml:space="preserve">
<style type="text/css">
	.st0{fill:#18141C;}
	.st1{fill:#FFFAF3;}
	.st2{fill:#E2012D;}
	.st3{fill:#1175BF;}
</style>
<rect class="st0" width="300" height="300"/>
<g>
	<g>
		<polygon class="st3" points="129.49,142.01 127.12,155.42 96.22,155.42 98.58,142.01 		"/>
		<path class="st3" d="M175.57,114.25l2.37-13.45l10.32,0c8.57,0,15.52,6.95,15.52,15.51v1.49c0,8.83-6.81,16.16-15.44,16.97
			c-0.53,0.05-1.06,0.08-1.61,0.08h-14.8l2.37-13.44h12.08c3.19,0,4.22-4.22,2-6.17c-0.97-0.85-2.23-0.97-3.48-1.01
			c-0.22-0.01-0.43-0.01-0.65-0.02L175.57,114.25z"/>
		<path class="st3" d="M118.5,134.85c-8.51-0.07-15.39-6.22-15.39-14.75v-4.18c0-8.35,6.77-15.11,15.11-15.11h18.54l-2.37,13.45
			l-12.88-0.05c-2.15,0-4.13,1.24-4.25,3.58c-0.09,1.88,1.3,3.62,3.25,3.62l12.62,0l-0.17,0.94l-2.2,12.46L118.5,134.85z"/>
		<path class="st2" d="M170.86,121.42L170.86,121.42l-6,34l-13.43,0l3.67-20.79C156.45,126.98,163.1,121.41,170.86,121.42z"/>
		<polygon class="st1" points="142.5,142.01 140.13,155.42 130.54,155.42 132.92,142.01 		"/>
		<polygon class="st1" points="174.64,100.8 172.26,114.25 137.81,114.25 140.22,100.8 		"/>
		<polygon class="st1" points="154.01,121.41 151.64,134.81 134.22,134.81 135.58,126.85 136.55,121.41 		"/>
	</g>
</g>
<g>
	<g>
		<path class="st1" d="M85.03,182.34v4.76h-9.94v5.14h7.43v4.62h-7.43v9.87h-5.94v-24.39H85.03z"/>
		<path class="st1" d="M88.33,187.14v-4.79h9.62v24.39h-6.18v-19.6H88.33z"/>
		<path class="st1" d="M130.37,194.07c-0.65,1.17-1.64,2.11-2.99,2.83c-1.34,0.72-3.01,1.08-5,1.08h-3.68v8.76h-5.94v-24.39h9.62
			c1.95,0,3.59,0.34,4.93,1.01c1.34,0.67,2.35,1.6,3.02,2.78c0.67,1.18,1.01,2.54,1.01,4.07
			C131.34,191.61,131.02,192.9,130.37,194.07z M124.46,192.45c0.56-0.53,0.83-1.29,0.83-2.26c0-0.97-0.28-1.73-0.83-2.26
			c-0.56-0.53-1.4-0.8-2.54-0.8h-3.23v6.11h3.23C123.06,193.25,123.91,192.98,124.46,192.45z"/>
		<path class="st1" d="M141.05,205.38c-1.91-1.07-3.43-2.55-4.55-4.46c-1.12-1.91-1.68-4.06-1.68-6.45c0-2.39,0.56-4.53,1.68-6.43
			c1.12-1.9,2.64-3.38,4.55-4.45c1.91-1.06,4.01-1.6,6.31-1.6s4.4,0.53,6.31,1.6c1.91,1.07,3.42,2.55,4.52,4.45
			c1.1,1.9,1.65,4.04,1.65,6.43c0,2.39-0.56,4.53-1.67,6.45c-1.11,1.91-2.62,3.4-4.52,4.46c-1.9,1.07-4,1.6-6.29,1.6
			S142.96,206.44,141.05,205.38z M152.03,199.61c1.17-1.3,1.75-3.01,1.75-5.14c0-2.15-0.59-3.87-1.75-5.16
			c-1.17-1.29-2.73-1.93-4.67-1.93c-1.97,0-3.54,0.64-4.71,1.91c-1.17,1.27-1.75,3-1.75,5.18c0,2.15,0.58,3.87,1.75,5.16
			c1.17,1.29,2.74,1.93,4.71,1.93C149.3,201.55,150.86,200.91,152.03,199.61z"/>
		<path class="st1" d="M178.66,206.73l-8.2-10.77v10.77h-5.94v-24.39h5.94v10.7l8.13-10.7h6.98l-9.45,11.95l9.8,12.44H178.66z"/>
		<path class="st1" d="M205.31,202.42h-9.1l-1.46,4.31h-6.22l8.83-24.39h6.88l8.83,24.39h-6.29L205.31,202.42z M203.78,197.84
			l-3.02-8.93l-2.99,8.93H203.78z"/>
		<path class="st1" d="M223.07,202.15h7.78v4.59h-13.72v-24.39h5.94V202.15z"/>
	</g>
	<g>
		<path class="st1" d="M71.09,176.45c-0.58-0.24-1.04-0.59-1.39-1.06c-0.35-0.47-0.53-1.03-0.55-1.68h2.59
			c0.04,0.37,0.17,0.65,0.39,0.85c0.22,0.19,0.5,0.29,0.86,0.29c0.36,0,0.65-0.08,0.86-0.25c0.21-0.17,0.31-0.4,0.31-0.69
			c0-0.25-0.08-0.45-0.25-0.61c-0.17-0.16-0.37-0.29-0.61-0.4c-0.24-0.1-0.59-0.22-1.03-0.36c-0.65-0.2-1.17-0.4-1.58-0.6
			c-0.41-0.2-0.76-0.49-1.05-0.88c-0.29-0.39-0.44-0.9-0.44-1.53c0-0.93,0.34-1.66,1.01-2.19c0.67-0.53,1.55-0.79,2.64-0.79
			c1.1,0,1.99,0.26,2.67,0.79c0.67,0.53,1.04,1.26,1.08,2.2h-2.64c-0.02-0.32-0.14-0.58-0.36-0.76c-0.22-0.19-0.5-0.28-0.84-0.28
			c-0.29,0-0.53,0.08-0.71,0.24c-0.18,0.16-0.27,0.38-0.27,0.68c0,0.32,0.15,0.58,0.46,0.76c0.3,0.18,0.78,0.38,1.43,0.58
			c0.65,0.22,1.17,0.43,1.58,0.63c0.4,0.2,0.75,0.49,1.05,0.87c0.29,0.38,0.44,0.87,0.44,1.47c0,0.57-0.15,1.09-0.43,1.55
			c-0.29,0.47-0.71,0.84-1.26,1.11c-0.55,0.28-1.2,0.41-1.95,0.41C72.33,176.8,71.67,176.68,71.09,176.45z"/>
		<path class="st1" d="M90.19,174.82h3.19v1.88h-5.63v-10.01h2.44V174.82z"/>
		<path class="st1" d="M106.25,176.15c-0.78-0.44-1.41-1.05-1.87-1.83c-0.46-0.78-0.69-1.67-0.69-2.64c0-0.98,0.23-1.86,0.69-2.64
			c0.46-0.78,1.08-1.39,1.87-1.83c0.78-0.44,1.65-0.66,2.59-0.66s1.8,0.22,2.59,0.66c0.78,0.44,1.4,1.05,1.85,1.83
			c0.45,0.78,0.68,1.66,0.68,2.64c0,0.98-0.23,1.86-0.68,2.64c-0.46,0.78-1.07,1.4-1.85,1.83c-0.78,0.44-1.64,0.66-2.58,0.66
			S107.04,176.58,106.25,176.15z M110.76,173.78c0.48-0.53,0.72-1.24,0.72-2.11c0-0.88-0.24-1.59-0.72-2.12
			c-0.48-0.53-1.12-0.79-1.92-0.79c-0.81,0-1.45,0.26-1.93,0.78c-0.48,0.52-0.72,1.23-0.72,2.12c0,0.88,0.24,1.59,0.72,2.12
			c0.48,0.53,1.12,0.79,1.93,0.79C109.64,174.58,110.28,174.31,110.76,173.78z"/>
		<path class="st1" d="M134.26,166.69l-3.55,10.01h-3.05l-3.55-10.01h2.59l2.48,7.56l2.49-7.56H134.26z"/>
		<path class="st1" d="M147.26,168.65v2.02h3.26v1.88h-3.26v2.2h3.69v1.95h-6.13v-10.01h6.13v1.95H147.26z"/>
		<path class="st1" d="M171.04,176.7h-2.44l-4.08-6.17v6.17h-2.44v-10.01h2.44l4.08,6.2v-6.2h2.44V176.7z"/>
		<path class="st1" d="M184.02,176.45c-0.58-0.24-1.04-0.59-1.39-1.06c-0.35-0.47-0.53-1.03-0.55-1.68h2.59
			c0.04,0.37,0.17,0.65,0.39,0.85c0.22,0.19,0.5,0.29,0.86,0.29c0.36,0,0.65-0.08,0.86-0.25c0.21-0.17,0.31-0.4,0.31-0.69
			c0-0.25-0.08-0.45-0.25-0.61c-0.17-0.16-0.37-0.29-0.61-0.4c-0.24-0.1-0.59-0.22-1.03-0.36c-0.65-0.2-1.17-0.4-1.58-0.6
			c-0.41-0.2-0.76-0.49-1.05-0.88c-0.29-0.39-0.44-0.9-0.44-1.53c0-0.93,0.34-1.66,1.01-2.19c0.67-0.53,1.55-0.79,2.64-0.79
			c1.1,0,1.99,0.26,2.67,0.79c0.67,0.53,1.04,1.26,1.08,2.2h-2.64c-0.02-0.32-0.14-0.58-0.36-0.76c-0.22-0.19-0.5-0.28-0.84-0.28
			c-0.29,0-0.53,0.08-0.71,0.24c-0.18,0.16-0.27,0.38-0.27,0.68c0,0.32,0.15,0.58,0.46,0.76c0.3,0.18,0.78,0.38,1.43,0.58
			c0.65,0.22,1.17,0.43,1.58,0.63c0.4,0.2,0.75,0.49,1.05,0.87c0.29,0.38,0.44,0.87,0.44,1.47c0,0.57-0.15,1.09-0.43,1.55
			c-0.29,0.47-0.71,0.84-1.26,1.11c-0.55,0.28-1.2,0.41-1.95,0.41C185.25,176.8,184.6,176.68,184.02,176.45z"/>
		<path class="st1" d="M206.48,176.7l-3.36-4.42v4.42h-2.44v-10.01h2.44v4.39l3.34-4.39h2.87l-3.88,4.9l4.02,5.1H206.48z"/>
		<path class="st1" d="M222.61,166.69v10.01h-2.44v-10.01H222.61z"/>
	</g>
</g>
</svg>
