<?xml version="1.0" encoding="utf-8"?>
<!-- Generator: Adobe Illustrator 24.0.2, SVG Export Plug-In . SVG Version: 6.00 Build 0)  -->
<svg version="1.1" id="Layer_1" xmlns="http://www.w3.org/2000/svg" xmlns:xlink="http://www.w3.org/1999/xlink" x="0px" y="0px"
	 viewBox="0 0 300 300" style="enable-background:new 0 0 300 300;" xml:space="preserve">
<style type="text/css">
	.st0{fill:#18141C;}
	.st1{fill:#FFFAF3;}
	.st2{fill:#E2012D;}
	.st3{fill:#1175BF;}
</style>
<rect class="st0" width="300" height="300"/>
<g>
	<polygon class="st3" points="110.12,180.92 105.53,206.97 45.45,206.97 50.05,180.92 	"/>
	<path class="st3" d="M199.7,126.95l4.62-26.15l20.07,0c16.66,0,30.17,13.51,30.17,30.15v2.9c0,17.18-13.24,31.41-30.02,32.99
		c-1.02,0.1-2.07,0.15-3.12,0.15h-28.78l4.61-26.13h23.48c6.2,0,8.2-8.2,3.89-11.99c-1.88-1.66-4.34-1.88-6.76-1.97
		c-0.42-0.02-0.84-0.03-1.27-0.04L199.7,126.95z"/>
	<path class="st3" d="M88.76,166.98c-16.55-0.14-29.91-12.1-29.91-28.67v-8.12c0-16.23,13.16-29.38,29.38-29.38h36.03l-4.62,26.15
		l-25.04-0.09c-4.18,0-8.04,2.41-8.25,6.96c-0.17,3.66,2.52,7.04,6.31,7.04l24.52-0.01l-0.32,1.84l-4.28,24.22L88.76,166.98z"/>
	<path class="st2" d="M190.55,140.88L190.55,140.88l-11.67,66.09l-26.1,0l7.13-40.42C162.54,151.69,175.46,140.86,190.55,140.88z"/>
	<polygon class="st1" points="135.42,180.92 130.81,206.97 112.18,206.97 116.81,180.92 	"/>
	<polygon class="st1" points="197.9,100.81 193.28,126.95 126.31,126.95 130.98,100.81 	"/>
	<polygon class="st1" points="157.8,140.86 153.19,166.92 119.33,166.92 121.98,151.44 123.86,140.86 	"/>
</g>
</svg>
