<?xml version="1.0" encoding="utf-8"?>
<!-- Generator: Adobe Illustrator 24.0.2, SVG Export Plug-In . SVG Version: 6.00 Build 0)  -->
<svg version="1.1" id="Layer_1" xmlns="http://www.w3.org/2000/svg" xmlns:xlink="http://www.w3.org/1999/xlink" x="0px" y="0px"
	 viewBox="0 0 800 300" style="enable-background:new 0 0 800 300;" xml:space="preserve">
<style type="text/css">
	.st0{fill:#18141C;}
	.st1{fill:#FFFAF3;}
	.st2{fill:#E2012D;}
	.st3{fill:#1175BF;}
</style>
<rect class="st0" width="800" height="300"/>
<g>
	<g>
		<g>
			<polygon class="st3" points="128.83,180.92 124.23,206.97 64.15,206.97 68.75,180.92 			"/>
			<path class="st3" d="M218.4,126.95l4.62-26.15l20.07,0c16.66,0,30.17,13.51,30.17,30.15v2.9c0,17.18-13.24,31.41-30.02,32.99
				c-1.02,0.1-2.07,0.15-3.12,0.15h-28.78l4.61-26.13h23.48c6.2,0,8.2-8.2,3.89-11.99c-1.88-1.66-4.34-1.88-6.76-1.97
				c-0.42-0.02-0.84-0.03-1.27-0.04L218.4,126.95z"/>
			<path class="st3" d="M107.46,166.98c-16.55-0.14-29.91-12.1-29.91-28.67v-8.12c0-16.23,13.16-29.38,29.38-29.38h36.03
				l-4.62,26.15l-25.04-0.09c-4.18,0-8.04,2.41-8.25,6.96c-0.17,3.66,2.52,7.04,6.31,7.04l24.52-0.01l-0.32,1.84l-4.28,24.22
				L107.46,166.98z"/>
			<path class="st2" d="M209.26,140.88L209.26,140.88l-11.67,66.09l-26.1,0l7.13-40.42C181.25,151.69,194.17,140.86,209.26,140.88z"
				/>
			<polygon class="st1" points="154.13,180.92 149.52,206.97 130.88,206.97 135.51,180.92 			"/>
			<polygon class="st1" points="216.61,100.81 211.99,126.95 145.01,126.95 149.69,100.81 			"/>
			<polygon class="st1" points="176.51,140.86 171.9,166.92 138.04,166.92 140.68,151.44 142.56,140.86 			"/>
		</g>
	</g>
	<g>
		<g>
			<path class="st1" d="M348.34,142.16v12.65h-26.41v13.67h19.76v12.28h-19.76v26.22h-15.79v-64.82H348.34z"/>
			<path class="st1" d="M357.11,154.9v-12.74h25.58v64.82h-16.44V154.9H357.11z"/>
			<path class="st1" d="M468.83,173.32c-1.72,3.11-4.37,5.62-7.94,7.52c-3.57,1.91-8,2.86-13.3,2.86h-9.79v23.27h-15.79v-64.82
				h25.58c5.17,0,9.54,0.89,13.11,2.68c3.57,1.79,6.25,4.25,8.03,7.39c1.78,3.14,2.68,6.74,2.68,10.8
				C471.42,166.78,470.55,170.21,468.83,173.32z M453.14,169.03c1.48-1.42,2.22-3.42,2.22-6c0-2.58-0.74-4.59-2.22-6
				c-1.48-1.41-3.72-2.12-6.74-2.12h-8.59v16.25h8.59C449.41,171.15,451.66,170.44,453.14,169.03z"/>
			<path class="st1" d="M497.22,203.37c-5.08-2.83-9.11-6.79-12.1-11.86c-2.99-5.08-4.48-10.79-4.48-17.13
				c0-6.34,1.49-12.03,4.48-17.08c2.99-5.05,7.02-8.99,12.1-11.82c5.08-2.83,10.66-4.25,16.76-4.25c6.09,0,11.68,1.42,16.76,4.25
				c5.08,2.83,9.08,6.77,12,11.82c2.92,5.05,4.39,10.74,4.39,17.08c0,6.34-1.48,12.05-4.43,17.13c-2.95,5.08-6.96,9.03-12,11.86
				c-5.05,2.83-10.62,4.25-16.71,4.25C507.89,207.62,502.3,206.21,497.22,203.37z M526.4,188.05c3.11-3.45,4.66-8,4.66-13.67
				c0-5.72-1.56-10.29-4.66-13.71c-3.11-3.42-7.25-5.12-12.42-5.12c-5.23,0-9.4,1.69-12.51,5.08c-3.11,3.39-4.66,7.97-4.66,13.76
				c0,5.72,1.55,10.29,4.66,13.71c3.11,3.42,7.28,5.12,12.51,5.12C519.15,193.22,523.29,191.49,526.4,188.05z"/>
			<path class="st1" d="M597.17,206.97l-21.79-28.62v28.62h-15.79v-64.82h15.79v28.44l21.6-28.44h18.56l-25.11,31.76l26.04,33.05
				H597.17z"/>
			<path class="st1" d="M667.99,195.53H643.8l-3.88,11.45h-16.53l23.45-64.82h18.28l23.45,64.82h-16.71L667.99,195.53z
				 M663.92,183.34l-8.03-23.73l-7.94,23.73H663.92z"/>
			<path class="st1" d="M715.17,194.79h20.68v12.19h-36.47v-64.82h15.79V194.79z"/>
		</g>
		<g>
			<path class="st1" d="M311.3,126.49c-1.54-0.63-2.77-1.57-3.69-2.8c-0.92-1.24-1.41-2.73-1.46-4.47h6.89
				c0.1,0.99,0.44,1.74,1.02,2.26c0.58,0.52,1.34,0.78,2.27,0.78c0.96,0,1.72-0.22,2.27-0.66c0.55-0.44,0.83-1.05,0.83-1.84
				c0-0.66-0.22-1.2-0.66-1.63c-0.44-0.43-0.98-0.78-1.63-1.06c-0.64-0.28-1.56-0.59-2.75-0.95c-1.72-0.53-3.12-1.06-4.21-1.59
				c-1.09-0.53-2.02-1.31-2.8-2.35c-0.78-1.04-1.17-2.39-1.17-4.05c0-2.48,0.9-4.41,2.69-5.82c1.79-1.4,4.13-2.1,7.01-2.1
				c2.93,0,5.29,0.7,7.08,2.1s2.75,3.35,2.88,5.85h-7.01c-0.05-0.86-0.37-1.53-0.95-2.03c-0.58-0.49-1.33-0.74-2.24-0.74
				c-0.78,0-1.41,0.21-1.89,0.62c-0.48,0.42-0.72,1.02-0.72,1.8c0,0.86,0.4,1.53,1.21,2.01c0.81,0.48,2.07,1,3.79,1.55
				c1.72,0.58,3.11,1.14,4.19,1.67c1.07,0.53,2,1.3,2.78,2.31c0.78,1.01,1.17,2.31,1.17,3.9c0,1.52-0.39,2.89-1.16,4.13
				c-0.77,1.24-1.89,2.22-3.35,2.96c-1.47,0.73-3.2,1.1-5.19,1.1C314.58,127.44,312.84,127.12,311.3,126.49z"/>
			<path class="st1" d="M362.07,122.17h8.49v5h-14.97v-26.6h6.48V122.17z"/>
			<path class="st1" d="M404.75,125.7c-2.08-1.16-3.74-2.78-4.96-4.87c-1.22-2.08-1.84-4.43-1.84-7.03c0-2.6,0.61-4.94,1.84-7.01
				c1.22-2.07,2.88-3.69,4.96-4.85c2.08-1.16,4.38-1.74,6.88-1.74s4.79,0.58,6.88,1.74c2.08,1.16,3.73,2.78,4.93,4.85
				c1.2,2.07,1.8,4.41,1.8,7.01c0,2.6-0.61,4.94-1.82,7.03c-1.21,2.08-2.85,3.71-4.93,4.87c-2.07,1.16-4.36,1.74-6.86,1.74
				S406.83,126.86,404.75,125.7z M416.72,119.41c1.27-1.41,1.91-3.28,1.91-5.61c0-2.35-0.64-4.22-1.91-5.63
				c-1.28-1.4-2.97-2.1-5.1-2.1c-2.15,0-3.86,0.7-5.13,2.08c-1.28,1.39-1.91,3.27-1.91,5.64c0,2.35,0.64,4.22,1.91,5.63
				c1.28,1.4,2.99,2.1,5.13,2.1C413.74,121.53,415.44,120.82,416.72,119.41z"/>
			<path class="st1" d="M479.17,100.58l-9.43,26.6h-8.11l-9.43-26.6h6.9l6.59,20.08l6.63-20.08H479.17z"/>
			<path class="st1" d="M513.73,105.77v5.38h8.68v5h-8.68v5.83h9.81v5.19h-16.29v-26.6h16.29v5.19H513.73z"/>
			<path class="st1" d="M576.92,127.18h-6.48l-10.84-16.4v16.4h-6.48v-26.6h6.48l10.84,16.48v-16.48h6.48V127.18z"/>
			<path class="st1" d="M611.4,126.49c-1.54-0.63-2.77-1.57-3.69-2.8c-0.92-1.24-1.41-2.73-1.46-4.47h6.89
				c0.1,0.99,0.44,1.74,1.02,2.26s1.34,0.78,2.27,0.78c0.96,0,1.72-0.22,2.27-0.66c0.55-0.44,0.83-1.05,0.83-1.84
				c0-0.66-0.22-1.2-0.66-1.63c-0.44-0.43-0.98-0.78-1.63-1.06c-0.64-0.28-1.56-0.59-2.75-0.95c-1.72-0.53-3.12-1.06-4.21-1.59
				c-1.09-0.53-2.02-1.31-2.8-2.35c-0.78-1.04-1.17-2.39-1.17-4.05c0-2.48,0.9-4.41,2.69-5.82c1.79-1.4,4.13-2.1,7.01-2.1
				c2.93,0,5.29,0.7,7.08,2.1s2.75,3.35,2.88,5.85h-7.01c-0.05-0.86-0.37-1.53-0.95-2.03c-0.58-0.49-1.33-0.74-2.24-0.74
				c-0.78,0-1.41,0.21-1.89,0.62c-0.48,0.42-0.72,1.02-0.72,1.8c0,0.86,0.4,1.53,1.21,2.01c0.81,0.48,2.07,1,3.79,1.55
				c1.72,0.58,3.11,1.14,4.19,1.67c1.07,0.53,2,1.3,2.78,2.31c0.78,1.01,1.17,2.31,1.17,3.9c0,1.52-0.39,2.89-1.16,4.13
				c-0.77,1.24-1.89,2.22-3.35,2.96c-1.47,0.73-3.2,1.1-5.19,1.1C614.68,127.44,612.94,127.12,611.4,126.49z"/>
			<path class="st1" d="M671.1,127.18l-8.94-11.74v11.74h-6.48v-26.6h6.48v11.67l8.87-11.67h7.61l-10.31,13.03l10.68,13.56H671.1z"
				/>
			<path class="st1" d="M713.95,100.58v26.6h-6.48v-26.6H713.95z"/>
		</g>
	</g>
</g>
</svg>
